<?xml version="1.0" encoding="UTF-8"?>
<!-- Generator: visioncortex VTracer 0.6.4 -->
<svg version="1.1" xmlns="http://www.w3.org/2000/svg" viewBox="209 289 478 621">
<path d="M0 0 C2.239 1.146 4.476 2.296 6.711 3.449 C17.457 8.934 28.326 14.08 39.336 19.012 C40.375 19.477 40.375 19.477 41.435 19.952 C45.315 21.688 49.199 23.416 53.086 25.137 C53.086 22.285 52.628 20.461 51.836 17.762 C50.847 13.546 50.847 13.546 52.836 10.137 C57.873 5.659 64.663 6.67 71.075 6.962 C82.387 7.945 94.419 16.022 102.086 24.137 C108.322 31.779 114.945 40.713 118.086 50.137 C118.746 50.467 119.406 50.797 120.086 51.137 C119.744 49.708 119.744 49.708 119.395 48.25 C118.963 46.369 118.963 46.369 118.523 44.449 C118.233 43.208 117.943 41.966 117.645 40.688 C117.118 37.339 116.95 35.305 118.086 32.137 C121.951 29.56 123.474 29.551 128.086 30.137 C140.511 35.723 149.314 45.598 156.086 57.137 C156.816 59.115 157.505 61.11 158.086 63.137 C158.655 63.238 159.224 63.338 159.81 63.442 C167.106 64.811 174.156 66.794 181.273 68.887 C188.44 70.981 195.596 73.054 202.852 74.82 C203.895 75.077 204.939 75.333 206.015 75.597 C207.969 76.069 209.928 76.528 211.889 76.97 C212.768 77.183 213.646 77.397 214.551 77.617 C215.31 77.791 216.069 77.966 216.851 78.145 C220.268 79.661 221.796 81.126 224.086 84.137 C224.839 87.949 224.752 91.718 224.707 95.593 C224.714 96.765 224.72 97.937 224.727 99.145 C224.739 102.396 224.73 105.646 224.71 108.897 C224.695 112.406 224.708 115.914 224.718 119.422 C224.733 126.299 224.72 133.175 224.699 140.051 C224.675 148.077 224.677 156.102 224.679 164.127 C224.683 178.468 224.662 192.81 224.628 207.152 C224.595 221.026 224.581 234.9 224.587 248.775 C224.594 263.902 224.591 279.029 224.572 294.156 C224.57 295.362 224.57 295.362 224.568 296.591 C224.566 298.205 224.564 299.818 224.562 301.431 C224.555 307.004 224.554 312.578 224.556 318.151 C224.557 324.972 224.547 331.792 224.524 338.613 C224.512 342.083 224.505 345.553 224.511 349.023 C224.572 410.166 203.969 461.35 161.086 505.137 C160.329 505.914 159.572 506.691 158.792 507.492 C149.933 516.567 141.142 525.391 131.086 533.137 C129.974 534.046 128.865 534.959 127.758 535.875 C118.719 543.319 109.281 550.027 99.533 556.509 C97.932 557.574 96.335 558.643 94.74 559.718 C67.002 578.408 37.528 593.699 7.023 607.324 C5.908 607.826 5.908 607.826 4.771 608.338 C2.639 609.295 0.502 610.239 -1.637 611.18 C-2.584 611.607 -2.584 611.607 -3.55 612.043 C-8.293 614.101 -13.051 615.784 -18.224 614.615 C-18.902 614.309 -19.579 614.003 -20.277 613.688 C-21.068 613.34 -21.858 612.993 -22.673 612.636 C-23.516 612.244 -24.358 611.853 -25.227 611.449 C-26.132 611.043 -27.038 610.638 -27.972 610.22 C-29.933 609.337 -31.89 608.446 -33.844 607.547 C-36.952 606.119 -40.07 604.718 -43.191 603.32 C-77.01 588.065 -108.921 569.999 -138.914 548.137 C-139.559 547.667 -140.204 547.198 -140.869 546.714 C-150.599 539.604 -159.911 532.146 -168.914 524.137 C-169.424 523.685 -169.934 523.233 -170.459 522.767 C-182.502 512.044 -193.993 500.873 -203.914 488.137 C-204.793 487.047 -205.673 485.958 -206.555 484.871 C-241.402 441.667 -252.246 394.302 -252.189 339.854 C-252.192 337.07 -252.198 334.287 -252.204 331.504 C-252.217 324.786 -252.219 318.067 -252.216 311.349 C-252.215 305.89 -252.216 300.431 -252.221 294.971 C-252.221 294.19 -252.222 293.409 -252.222 292.604 C-252.224 291.017 -252.225 289.43 -252.226 287.842 C-252.237 273.025 -252.235 258.209 -252.229 243.392 C-252.224 229.839 -252.235 216.287 -252.254 202.735 C-252.273 188.786 -252.281 174.838 -252.278 160.889 C-252.276 153.071 -252.278 145.252 -252.292 137.434 C-252.304 130.792 -252.306 124.15 -252.294 117.508 C-252.288 114.121 -252.287 110.734 -252.299 107.347 C-252.309 103.678 -252.301 100.01 -252.288 96.34 C-252.296 95.268 -252.303 94.196 -252.311 93.091 C-252.244 84.037 -252.244 84.037 -248.914 80.137 C-247.126 79.17 -247.126 79.17 -244.957 78.641 C-243.614 78.293 -243.614 78.293 -242.244 77.938 C-241.145 77.674 -240.046 77.409 -238.914 77.137 C-237.531 76.785 -236.149 76.43 -234.768 76.074 C-232.34 75.447 -229.911 74.822 -227.482 74.201 C-186.547 63.722 -146.204 50.707 -106.914 35.137 C-105.631 34.634 -104.347 34.131 -103.063 33.629 C-74.666 22.506 -46.806 10.032 -19.719 -3.994 C-12.691 -7.379 -6.519 -3.251 0 0 Z M-122.914 231.137 C-121.914 233.137 -121.914 233.137 -121.914 233.137 Z M-40.914 241.137 C-40.584 241.797 -40.254 242.457 -39.914 243.137 C-39.254 242.477 -38.594 241.817 -37.914 241.137 C-38.904 241.137 -39.894 241.137 -40.914 241.137 Z M-125.914 261.137 C-126.244 261.797 -126.574 262.457 -126.914 263.137 C-126.254 263.137 -125.594 263.137 -124.914 263.137 C-125.244 262.477 -125.574 261.817 -125.914 261.137 Z M-36.914 262.137 C-36.254 262.797 -35.594 263.457 -34.914 264.137 C-34.584 263.477 -34.254 262.817 -33.914 262.137 C-34.904 262.137 -35.894 262.137 -36.914 262.137 Z M-26.914 275.137 C-25.914 277.137 -25.914 277.137 -25.914 277.137 Z " fill="#020202" transform="translate(461.9140625,294.86328125)"/>
<path d="M0 0 C2.239 1.146 4.476 2.296 6.711 3.449 C17.457 8.934 28.326 14.08 39.336 19.012 C40.375 19.477 40.375 19.477 41.435 19.952 C45.315 21.688 49.199 23.416 53.086 25.137 C53.086 22.285 52.628 20.461 51.836 17.762 C50.847 13.546 50.847 13.546 52.836 10.137 C57.873 5.659 64.663 6.67 71.075 6.962 C82.387 7.945 94.419 16.022 102.086 24.137 C108.322 31.779 114.945 40.713 118.086 50.137 C118.746 50.467 119.406 50.797 120.086 51.137 C119.744 49.708 119.744 49.708 119.395 48.25 C118.963 46.369 118.963 46.369 118.523 44.449 C118.233 43.208 117.943 41.966 117.645 40.688 C117.118 37.339 116.95 35.305 118.086 32.137 C121.951 29.56 123.474 29.551 128.086 30.137 C140.511 35.723 149.314 45.598 156.086 57.137 C156.816 59.115 157.505 61.11 158.086 63.137 C158.655 63.238 159.224 63.338 159.81 63.442 C167.106 64.811 174.156 66.794 181.273 68.887 C188.44 70.981 195.596 73.054 202.852 74.82 C203.895 75.077 204.939 75.333 206.015 75.597 C207.969 76.069 209.928 76.528 211.889 76.97 C212.768 77.183 213.646 77.397 214.551 77.617 C215.31 77.791 216.069 77.966 216.851 78.145 C220.268 79.661 221.796 81.126 224.086 84.137 C224.839 87.949 224.752 91.718 224.707 95.593 C224.714 96.765 224.72 97.937 224.727 99.145 C224.739 102.396 224.73 105.646 224.71 108.897 C224.695 112.406 224.708 115.914 224.718 119.422 C224.733 126.299 224.72 133.175 224.699 140.051 C224.675 148.077 224.677 156.102 224.679 164.127 C224.683 178.468 224.662 192.81 224.628 207.152 C224.595 221.026 224.581 234.9 224.587 248.775 C224.594 263.902 224.591 279.029 224.572 294.156 C224.57 295.362 224.57 295.362 224.568 296.591 C224.566 298.205 224.564 299.818 224.562 301.431 C224.555 307.004 224.554 312.578 224.556 318.151 C224.557 324.972 224.547 331.792 224.524 338.613 C224.512 342.083 224.505 345.553 224.511 349.023 C224.572 410.166 203.969 461.35 161.086 505.137 C160.329 505.914 159.572 506.691 158.792 507.492 C149.933 516.567 141.142 525.391 131.086 533.137 C129.974 534.046 128.865 534.959 127.758 535.875 C118.719 543.319 109.281 550.027 99.533 556.509 C97.932 557.574 96.335 558.643 94.74 559.718 C67.002 578.408 37.528 593.699 7.023 607.324 C5.908 607.826 5.908 607.826 4.771 608.338 C2.639 609.295 0.502 610.239 -1.637 611.18 C-2.584 611.607 -2.584 611.607 -3.55 612.043 C-8.293 614.101 -13.051 615.784 -18.224 614.615 C-18.902 614.309 -19.579 614.003 -20.277 613.688 C-21.068 613.34 -21.858 612.993 -22.673 612.636 C-23.516 612.244 -24.358 611.853 -25.227 611.449 C-26.132 611.043 -27.038 610.638 -27.972 610.22 C-29.933 609.337 -31.89 608.446 -33.844 607.547 C-36.952 606.119 -40.07 604.718 -43.191 603.32 C-77.01 588.065 -108.921 569.999 -138.914 548.137 C-139.559 547.667 -140.204 547.198 -140.869 546.714 C-150.599 539.604 -159.911 532.146 -168.914 524.137 C-169.424 523.685 -169.934 523.233 -170.459 522.767 C-182.502 512.044 -193.993 500.873 -203.914 488.137 C-204.793 487.047 -205.673 485.958 -206.555 484.871 C-241.402 441.667 -252.246 394.302 -252.189 339.854 C-252.192 337.07 -252.198 334.287 -252.204 331.504 C-252.217 324.786 -252.219 318.067 -252.216 311.349 C-252.215 305.89 -252.216 300.431 -252.221 294.971 C-252.221 294.19 -252.222 293.409 -252.222 292.604 C-252.224 291.017 -252.225 289.43 -252.226 287.842 C-252.237 273.025 -252.235 258.209 -252.229 243.392 C-252.224 229.839 -252.235 216.287 -252.254 202.735 C-252.273 188.786 -252.281 174.838 -252.278 160.889 C-252.276 153.071 -252.278 145.252 -252.292 137.434 C-252.304 130.792 -252.306 124.15 -252.294 117.508 C-252.288 114.121 -252.287 110.734 -252.299 107.347 C-252.309 103.678 -252.301 100.01 -252.288 96.34 C-252.296 95.268 -252.303 94.196 -252.311 93.091 C-252.244 84.037 -252.244 84.037 -248.914 80.137 C-247.126 79.17 -247.126 79.17 -244.957 78.641 C-243.614 78.293 -243.614 78.293 -242.244 77.938 C-241.145 77.674 -240.046 77.409 -238.914 77.137 C-237.531 76.785 -236.149 76.43 -234.768 76.074 C-232.34 75.447 -229.911 74.822 -227.482 74.201 C-186.547 63.722 -146.204 50.707 -106.914 35.137 C-105.631 34.634 -104.347 34.131 -103.063 33.629 C-74.666 22.506 -46.806 10.032 -19.719 -3.994 C-12.691 -7.379 -6.519 -3.251 0 0 Z M58.086 15.137 C58.434 16.05 58.434 16.05 58.789 16.982 C59.856 19.801 60.908 22.625 61.961 25.449 C62.508 26.885 62.508 26.885 63.066 28.35 C66.696 38.148 68.439 47.381 68.211 57.824 C68.202 58.633 68.193 59.442 68.184 60.275 C68.16 62.229 68.125 64.183 68.086 66.137 C67.684 65.029 67.684 65.029 67.273 63.898 C62.23 50.842 54.788 40.167 42.133 33.605 C30.126 28.31 18.756 26.451 6.086 30.137 C5.184 32.597 4.925 33.736 5.919 36.208 C6.359 36.932 6.8 37.656 7.254 38.402 C7.735 39.211 8.217 40.019 8.713 40.852 C9.485 42.106 9.485 42.106 10.273 43.387 C15.43 51.929 19.928 60.247 23.336 69.637 C23.604 70.364 23.872 71.091 24.148 71.84 C24.798 73.604 25.443 75.37 26.086 77.137 C25.756 76.807 25.426 76.477 25.086 76.137 C9.137 60.251 -10.059 50.537 -32.914 49.824 C-40.103 49.975 -48.802 50.508 -54.164 55.824 C-54.742 56.587 -55.319 57.35 -55.914 58.137 C-52.749 70.888 -43.779 78.389 -34.35 86.827 C-32.476 88.536 -30.686 90.322 -28.914 92.137 C-29.823 91.689 -30.732 91.242 -31.668 90.781 C-53.493 80.206 -78.894 71.97 -102.914 80.137 C-106.171 81.765 -109.322 83.545 -111.914 86.137 C-112.161 90.084 -111.716 92.097 -109.285 95.25 C-101.478 102.894 -91.633 107.385 -81.914 112.137 C-82.837 112.065 -83.76 111.992 -84.711 111.918 C-120.319 108.515 -120.319 108.515 -152.789 119.887 C-153.49 120.629 -154.192 121.372 -154.914 122.137 C-154.715 125.625 -153.993 127.046 -151.664 129.699 C-145.405 134.515 -136.555 135.986 -128.914 137.137 C-129.788 137.356 -130.662 137.575 -131.562 137.801 C-152.512 142.675 -152.512 142.675 -170.914 153.137 C-172.213 154.127 -172.213 154.127 -173.539 155.137 C-175.165 157.147 -175.165 157.147 -175.164 160.137 C-173.682 163.693 -172.078 164.734 -168.59 166.258 C-163.15 168.045 -157.536 169.094 -151.914 170.137 C-152.762 170.514 -153.61 170.892 -154.484 171.281 C-165.539 176.468 -180.691 184.348 -185.914 196.137 C-186.591 198.62 -186.591 198.62 -185.914 201.137 C-181.365 205.229 -176.431 206.24 -170.539 207.387 C-169.292 207.646 -169.292 207.646 -168.02 207.91 C-165.987 208.331 -163.951 208.735 -161.914 209.137 C-162.425 209.561 -162.937 209.985 -163.464 210.421 C-173.695 218.985 -183.61 229.225 -187.914 242.137 C-187.981 243.531 -187.999 244.928 -187.977 246.324 C-187.956 247.582 -187.935 248.84 -187.914 250.137 C-186.583 250.337 -185.249 250.521 -183.914 250.699 C-183.172 250.804 -182.429 250.908 -181.664 251.016 C-177.98 251.178 -174.564 250.659 -170.914 250.137 C-171.543 251.034 -172.172 251.931 -172.82 252.855 C-187.075 272.873 -187.075 272.873 -191.914 296.137 C-187.734 296.219 -183.992 296.031 -179.914 295.137 C-180.287 295.993 -180.66 296.85 -181.044 297.732 C-182.447 300.956 -183.848 304.18 -185.249 307.405 C-185.851 308.792 -186.454 310.178 -187.058 311.565 C-189.86 318 -192.661 324.437 -195.336 330.926 C-195.646 331.678 -195.957 332.43 -196.276 333.206 C-197.071 335.273 -197.071 335.273 -196.914 338.137 C-193.614 337.477 -190.314 336.817 -186.914 336.137 C-194.416 356.612 -205.64 377.843 -223.039 391.637 C-225.642 395.107 -224.902 397.23 -224.391 401.399 C-223.644 405.69 -222.341 409.678 -220.852 413.762 C-220.544 414.623 -220.236 415.484 -219.918 416.371 C-217.105 424.02 -213.681 431.256 -209.827 438.429 C-209.005 439.967 -208.213 441.522 -207.426 443.078 C-199.251 458.899 -187.382 472.653 -175.321 485.612 C-173.909 487.142 -172.516 488.687 -171.129 490.238 C-170.254 491.215 -169.378 492.192 -168.477 493.199 C-167.694 494.077 -166.912 494.955 -166.105 495.859 C-163.29 498.869 -163.29 498.869 -159.914 501.137 C-153.256 499.78 -149.642 493.33 -145.914 488.137 C-141.736 482.038 -141.736 482.038 -139.914 475.137 C-140.688 474.978 -141.461 474.82 -142.258 474.656 C-149.886 472.948 -155.85 470.723 -161.742 465.523 C-164.591 463.705 -166.81 463.632 -170.164 463.449 C-171.781 463.351 -171.781 463.351 -173.43 463.25 C-174.25 463.213 -175.069 463.175 -175.914 463.137 C-174.429 462.7 -174.429 462.7 -172.914 462.254 C-165.286 459.922 -158.839 457.693 -152.914 452.137 C-152.013 451.334 -152.013 451.334 -151.094 450.516 C-146.541 446.249 -143.188 441.426 -139.914 436.137 C-141.769 445.9 -144.383 452.928 -152.477 459.012 C-155.163 460.785 -157.848 462.115 -160.914 463.137 C-160.914 463.797 -160.914 464.457 -160.914 465.137 C-150.12 470.102 -141.186 470.046 -129.969 466.328 C-119.729 462.334 -114.575 454.17 -109.949 444.547 C-108.618 441.446 -107.698 438.416 -106.914 435.137 C-106.205 445.774 -109.05 454.993 -115.996 463.168 C-121.329 468.642 -126.664 471.806 -133.914 474.137 C-132.657 477.909 -131.42 478.312 -128.039 480.262 C-126.713 481.039 -126.713 481.039 -125.359 481.832 C-118.928 485.263 -111.049 485.373 -104.117 483.301 C-93.246 478.27 -87.399 470.001 -82.914 459.137 C-82.544 457.813 -82.193 456.483 -81.914 455.137 C-81.128 463.583 -83.794 472.611 -88.602 479.574 C-93.215 485.113 -99.236 488.625 -105.914 491.137 C-105.497 498.924 -103.1 504.11 -97.414 509.512 C-92.523 512.691 -88.793 513.735 -82.914 513.137 C-75.818 511.014 -71.107 506.058 -66.914 500.137 C-64.476 495.616 -62.537 491.005 -60.914 486.137 C-60.186 495.79 -63.368 503.855 -69.352 511.383 C-70.914 513.137 -70.914 513.137 -72.957 514.781 C-75.859 518.274 -76.32 522.007 -77.227 526.387 C-79.128 534.82 -81.867 542.345 -85.559 550.145 C-87.052 552.893 -87.052 552.893 -86.914 555.137 C-82.396 557.563 -77.875 559.984 -73.352 562.4 C-71.813 563.223 -70.274 564.047 -68.737 564.874 C-66.53 566.059 -64.32 567.239 -62.109 568.418 C-61.42 568.79 -60.73 569.162 -60.02 569.545 C-56.654 571.482 -56.654 571.482 -52.914 572.137 C-42.367 529.758 -36.781 484.457 -59.914 445.137 C-72.892 424.773 -91.332 413.252 -114.594 408.027 C-136.153 403.902 -158.643 407.657 -178.727 415.867 C-181.148 416.832 -183.374 417.61 -185.914 418.137 C-160.057 402.218 -131.759 396.136 -101.914 403.137 C-79.974 408.662 -62.04 422.508 -50.319 441.768 C-32.254 472.94 -32.544 510.978 -41.391 545.051 C-43.183 551.772 -45.115 558.45 -47.13 565.108 C-47.991 568.435 -48.485 571.729 -48.914 575.137 C-45.019 576.953 -41.123 578.768 -37.226 580.581 C-35.902 581.197 -34.578 581.814 -33.254 582.432 C-31.346 583.322 -29.437 584.21 -27.527 585.098 C-26.38 585.632 -25.234 586.166 -24.052 586.716 C-23.016 587.185 -21.981 587.654 -20.914 588.137 C-20.097 588.55 -19.28 588.963 -18.438 589.389 C-12.454 591.162 -6.961 588.573 -1.559 586.066 C-0.867 585.753 -0.176 585.44 0.536 585.118 C2.787 584.093 5.031 583.054 7.273 582.012 C8.044 581.657 8.815 581.301 9.609 580.936 C23.783 574.395 37.644 567.391 51.243 559.725 C53.772 558.312 56.322 556.96 58.891 555.621 C60.187 554.901 61.481 554.177 62.773 553.449 C63.809 552.888 64.844 552.328 65.91 551.75 C69.538 547.393 69.025 542.642 69.086 537.137 C69.101 536.112 69.101 536.112 69.117 535.066 C69.193 529.672 69.178 524.281 69.148 518.887 C69.143 517.255 69.139 515.624 69.135 513.992 C69.124 510.04 69.107 506.089 69.086 502.137 C66.638 500.913 65.745 501.248 63.086 501.699 C52.427 502.978 43.517 498.792 34.836 492.949 C32.129 490.181 31.271 488.335 29.711 484.887 C28.347 482.155 28.347 482.155 26.086 480.137 C22.031 479.307 18.257 479.257 14.137 479.246 C5.682 479.191 -1.191 475.771 -7.254 470.02 C-9.691 467.256 -11.295 464.441 -12.914 461.137 C-12.487 461.572 -12.061 462.008 -11.621 462.457 C-4.197 469.529 5.266 474.813 15.691 475.234 C25.302 474.842 33.357 471.84 40.27 464.965 C41.943 463.065 43.546 461.146 45.086 459.137 C43.629 465.628 41.465 470.886 35.758 474.688 C33.562 475.913 31.359 477.062 29.086 478.137 C30.083 483.906 34.518 487.121 38.941 490.594 C46.979 496.079 56.453 498.118 66.086 497.137 C70.444 496.394 70.444 496.394 74.086 494.137 C74.22 481.022 70.242 464.715 64.086 453.137 C61.035 451.734 61.035 451.734 58.086 453.574 C51.449 456.586 44.34 455.801 37.523 453.699 C32.155 451.561 28.379 448.265 24.277 444.258 C22.308 442.352 20.314 440.725 18.086 439.137 C17.503 439.547 16.921 439.957 16.32 440.379 C7.939 445.887 0.091 447.891 -9.914 446.637 C-20.986 444.336 -29.85 438.959 -36.914 430.137 C-38.794 427.224 -40.439 424.273 -41.914 421.137 C-41.38 421.717 -40.847 422.297 -40.297 422.895 C-30.579 433.083 -18.598 440.107 -4.258 441.172 C4.16 441.046 11.65 439.005 19.086 435.137 C19.608 435.656 20.13 436.176 20.668 436.711 C30.239 445.779 39.775 449.462 52.809 449.359 C57.205 449.061 60.165 448.134 64.086 446.137 C64.746 445.147 65.406 444.157 66.086 443.137 C65.622 440.708 65.622 440.708 64.523 438.086 C64.141 437.083 63.759 436.081 63.365 435.048 C62.943 433.984 62.521 432.92 62.086 431.824 C61.67 430.743 61.255 429.662 60.827 428.548 C58.11 421.536 55.213 414.635 51.984 407.844 C50.948 404.721 51.019 403.225 52.086 400.137 C53.25 398.391 53.25 398.391 54.711 396.699 C60.676 389.139 64.322 379.92 68.086 371.137 C70.066 376.087 72.046 381.037 74.086 386.137 C75.076 386.137 76.066 386.137 77.086 386.137 C85.544 376.345 88.579 363.775 89.086 351.137 C91.057 353.108 92.304 355.75 93.734 358.129 C95.03 360.053 96.392 361.561 98.086 363.137 C98.739 361.431 99.383 359.722 100.023 358.012 C100.383 357.06 100.743 356.109 101.113 355.129 C103.146 348.874 103.269 342.837 103.273 336.324 C103.286 335.473 103.298 334.621 103.311 333.744 C103.321 329.343 103.016 325.512 101.863 321.254 C100.918 317.44 100.918 317.44 102.422 314.727 C104.31 313.197 106.198 311.667 108.086 310.137 C108.416 315.417 108.746 320.697 109.086 326.137 C127.255 314.708 141.121 299.046 147.086 278.137 C147.31 277.361 147.535 276.585 147.766 275.785 C153.528 250.922 146.983 225.99 134.016 204.707 C132.411 202.154 130.778 199.632 129.086 197.137 C129.818 196.876 130.55 196.616 131.305 196.348 C134.147 195.11 136.18 193.702 138.586 191.762 C139.358 191.142 140.13 190.522 140.926 189.883 C141.639 189.307 142.351 188.73 143.086 188.137 C144.602 186.992 144.602 186.992 146.148 185.824 C146.788 185.267 147.427 184.71 148.086 184.137 C148.086 183.477 148.086 182.817 148.086 182.137 C148.746 182.137 149.406 182.137 150.086 182.137 C161.417 169.397 169.398 150.102 170.086 133.137 C170.138 132.188 170.189 131.239 170.242 130.262 C170.507 121.252 168.975 112.895 167.086 104.137 C165.298 107.391 164.325 110.628 163.336 114.199 C161.162 121.415 158.577 129.809 152.086 134.137 C152.519 133.105 152.952 132.074 153.398 131.012 C161.346 109.541 161.11 85.176 152.086 64.137 C146.677 53.683 138.155 42.049 127.086 37.137 C126.096 37.467 125.106 37.797 124.086 38.137 C124.291 38.982 124.496 39.828 124.707 40.699 C131.301 68.464 127.181 98.575 112.086 123.137 C109.6 126.941 106.918 130.582 104.086 134.137 C104.973 132.393 104.973 132.393 105.879 130.613 C117.667 106.968 122.438 84.533 113.984 58.781 C107.394 40.647 97.147 24.714 79.215 16.332 C71.812 13.504 65.584 12.217 58.086 15.137 Z " fill="#7E7D79" transform="translate(461.9140625,294.86328125)"/>
<path d="M0 0 C4.219 1.095 8.437 2.198 12.653 3.308 C14.087 3.684 15.521 4.059 16.956 4.431 C19.02 4.967 21.083 5.51 23.145 6.055 C25.006 6.542 25.006 6.542 26.906 7.039 C30 8 30 8 33 10 C33.375 11.892 33.375 11.892 33.375 14.25 C33.382 15.147 33.389 16.044 33.397 16.968 C33.389 17.96 33.382 18.952 33.374 19.974 C33.378 21.023 33.382 22.072 33.386 23.153 C33.396 26.694 33.384 30.233 33.372 33.773 C33.375 36.303 33.378 38.832 33.383 41.362 C33.392 47.54 33.386 53.718 33.374 59.896 C33.36 67.11 33.362 74.323 33.364 81.537 C33.367 94.436 33.356 107.335 33.336 120.234 C33.317 132.702 33.31 145.169 33.316 157.637 C33.322 171.231 33.321 184.824 33.31 198.417 C33.309 199.875 33.308 201.334 33.307 202.792 C33.306 203.509 33.305 204.226 33.305 204.965 C33.301 209.969 33.301 214.972 33.303 219.976 C33.306 226.759 33.297 233.542 33.281 240.325 C33.277 242.794 33.276 245.263 33.279 247.733 C33.291 260.182 33.04 272.554 32.116 284.973 C32.001 286.536 32.001 286.536 31.884 288.13 C28.965 323.584 12.758 357.018 -10 384 C-10.879 385.065 -11.758 386.13 -12.637 387.195 C-22.45 398.972 -33.129 410.269 -45 420 C-45.805 420.667 -45.805 420.667 -46.625 421.348 C-59.312 431.862 -72.341 441.849 -85.875 451.25 C-86.559 451.728 -87.244 452.207 -87.949 452.7 C-92.759 456 -92.759 456 -95 456 C-94.956 449.931 -94.886 443.862 -94.792 437.793 C-94.764 435.728 -94.743 433.663 -94.729 431.598 C-94.708 428.631 -94.661 425.666 -94.609 422.699 C-94.608 421.774 -94.607 420.849 -94.606 419.896 C-94.551 417.528 -94.475 415.321 -94 413 C-92 411.104 -92 411.104 -90 410 C-89.297 406.584 -89.297 406.584 -89.25 402.812 C-89.165 400.904 -89.165 400.904 -89.078 398.957 C-89.052 397.981 -89.027 397.005 -89 396 C-88.34 396 -87.68 396 -87 396 C-86.72 395.426 -86.439 394.853 -86.15 394.262 C-84.167 390.362 -82.354 386.897 -79 384 C-75.158 382.851 -71.464 382.927 -67.477 383 C-66.375 382.989 -65.274 382.978 -64.139 382.967 C-60.634 382.941 -57.131 382.97 -53.625 383 C-51.243 382.992 -48.862 382.98 -46.48 382.965 C-40.653 382.935 -34.827 382.95 -29 383 C-28.67 382.01 -28.34 381.02 -28 380 C-43.18 379.67 -58.36 379.34 -74 379 C-70.764 375.764 -69.91 375.499 -65.611 374.741 C-63.959 374.441 -63.959 374.441 -62.274 374.135 C-60.493 373.831 -60.493 373.831 -58.676 373.52 C-57.459 373.302 -56.243 373.084 -54.989 372.86 C-51.76 372.284 -48.53 371.719 -45.298 371.158 C-41.999 370.584 -38.702 369.995 -35.404 369.408 C-28.938 368.26 -22.47 367.125 -16 366 C-15.67 364.68 -15.34 363.36 -15 362 C-33.81 365.465 -33.81 365.465 -53 369 C-53 368.34 -53 367.68 -53 367 C-51.915 366.567 -50.829 366.133 -49.711 365.687 C-45.692 364.077 -41.682 362.447 -37.674 360.811 C-35.937 360.105 -34.198 359.405 -32.456 358.71 C-29.956 357.712 -27.464 356.694 -24.973 355.672 C-24.19 355.364 -23.408 355.057 -22.602 354.74 C-20.169 353.769 -20.169 353.769 -17 352 C-16.241 349.952 -16.241 349.952 -16 348 C-26.952 351.887 -37.665 356.31 -48.375 360.812 C-49.432 361.257 -49.432 361.257 -50.51 361.71 C-57.827 364.698 -57.827 364.698 -65 368 C-63.483 364.706 -61.621 361.894 -59.438 359 C-58.817 358.154 -58.197 357.309 -57.559 356.438 C-51.007 350.196 -40.8 348.059 -32.438 345.125 C-29.95 344.241 -27.463 343.357 -24.977 342.473 C-21.706 341.312 -18.434 340.152 -15.159 339.003 C-12.873 338.2 -10.592 337.384 -8.312 336.562 C-7.092 336.131 -5.871 335.699 -4.613 335.254 C-3.751 334.84 -2.889 334.426 -2 334 C-1.67 333.01 -1.34 332.02 -1 331 C-5.932 331.566 -10.214 332.626 -14.859 334.363 C-15.489 334.597 -16.119 334.83 -16.768 335.07 C-18.765 335.811 -20.757 336.561 -22.75 337.312 C-24.07 337.805 -25.39 338.296 -26.711 338.787 C-29.273 339.74 -31.833 340.696 -34.393 341.655 C-39.251 343.466 -44.123 345.24 -49 347 C-49 346.34 -49 345.68 -49 345 C-47.377 343.802 -47.377 343.802 -45.066 342.453 C-43.769 341.69 -43.769 341.69 -42.446 340.912 C-41.494 340.364 -40.543 339.815 -39.562 339.25 C-38.588 338.681 -37.613 338.112 -36.609 337.525 C-27.959 332.498 -19.233 327.603 -10.479 322.759 C-2.091 318.124 -2.091 318.124 6 313 C6 312.34 6 311.68 6 311 C2.155 311.597 -0.761 312.739 -4.176 314.59 C-5.162 315.123 -6.148 315.656 -7.164 316.205 C-8.203 316.776 -9.242 317.348 -10.312 317.938 C-11.377 318.517 -12.442 319.097 -13.54 319.694 C-20.65 323.6 -27.598 327.696 -34.353 332.191 C-35.867 333.183 -37.429 334.101 -39 335 C-39.66 334.67 -40.32 334.34 -41 334 C-35.086 328.466 -29.002 323.39 -22.48 318.59 C-18.199 315.428 -14.009 312.148 -9.812 308.875 C-9.076 308.301 -8.34 307.727 -7.582 307.136 C-6.86 306.573 -6.138 306.01 -5.395 305.43 C-4.68 304.874 -3.965 304.318 -3.229 303.745 C-1.651 302.51 -0.081 301.265 1.483 300.013 C2.692 299.051 2.692 299.051 3.926 298.07 C4.658 297.483 5.391 296.895 6.146 296.29 C8 295 8 295 10 295 C10 293.68 10 292.36 10 291 C6.968 291.597 5.014 292.497 2.566 294.371 C1.924 294.858 1.281 295.346 0.619 295.848 C-0.399 296.635 -0.399 296.635 -1.438 297.438 C-2.494 298.242 -2.494 298.242 -3.572 299.062 C-5.72 300.701 -7.861 302.349 -10 304 C-10.95 304.733 -10.95 304.733 -11.919 305.481 C-12.517 305.942 -13.115 306.404 -13.73 306.879 C-14.305 307.322 -14.88 307.766 -15.473 308.223 C-17.029 309.426 -18.581 310.635 -20.133 311.844 C-23.026 314.02 -25.97 316.022 -29 318 C-27.391 314.579 -25.434 311.481 -23.375 308.312 C-23.003 307.735 -22.63 307.157 -22.246 306.561 C-20.18 303.355 -18.102 300.156 -16.012 296.965 C-14.183 294.172 -12.361 291.375 -10.544 288.574 C-9.808 287.443 -9.068 286.315 -8.326 285.189 C-7.27 283.587 -6.227 281.977 -5.184 280.367 C-4.571 279.43 -3.958 278.493 -3.326 277.527 C-1.69 274.885 -1.69 274.885 -2 271 C-6.146 272.382 -7.249 275.226 -9.375 278.812 C-10.253 280.258 -11.134 281.702 -12.016 283.145 C-12.489 283.921 -12.963 284.698 -13.451 285.499 C-16.268 290.047 -19.2 294.521 -22.125 299 C-22.706 299.891 -23.286 300.781 -23.884 301.698 C-25.255 303.8 -26.627 305.9 -28 308 C-28.33 307.34 -28.66 306.68 -29 306 C-28.028 303.322 -26.987 300.749 -25.852 298.141 C-25.52 297.359 -25.188 296.577 -24.846 295.771 C-23.779 293.261 -22.703 290.755 -21.625 288.25 C-20.554 285.759 -19.486 283.267 -18.426 280.772 C-17.765 279.218 -17.099 277.666 -16.426 276.117 C-14.708 272.075 -13.51 268.406 -13 264 C-16.207 264.686 -16.207 264.686 -17.347 267.538 C-17.796 268.652 -18.245 269.766 -18.707 270.914 C-19.076 271.818 -19.076 271.818 -19.453 272.74 C-20.25 274.698 -21.031 276.661 -21.812 278.625 C-22.352 279.958 -22.892 281.29 -23.433 282.622 C-24.968 286.41 -26.485 290.204 -28 294 C-28.706 295.754 -29.413 297.508 -30.121 299.262 C-31.427 302.503 -32.72 305.749 -34 309 C-35.546 305.003 -34.47 301.405 -33.566 297.383 C-33.41 296.648 -33.253 295.913 -33.091 295.156 C-32.59 292.811 -32.077 290.468 -31.562 288.125 C-31.052 285.789 -30.545 283.453 -30.044 281.115 C-29.733 279.662 -29.416 278.211 -29.093 276.761 C-28.236 272.771 -27.841 269.079 -28 265 C-28.66 265 -29.32 265 -30 265 C-31.33 270.708 -32.66 276.417 -33.989 282.126 C-34.684 285.11 -35.38 288.094 -36.076 291.078 C-38.942 303.369 -38.942 303.369 -41.707 315.684 C-41.934 316.71 -42.16 317.737 -42.394 318.794 C-42.787 320.589 -43.174 322.385 -43.553 324.182 C-44.781 329.781 -44.781 329.781 -47 332 C-46.414 320.54 -45.314 309.202 -43.938 297.812 C-43.657 295.475 -43.378 293.138 -43.102 290.8 C-42.932 289.364 -42.76 287.928 -42.584 286.492 C-42.167 282.974 -41.908 279.543 -42 276 C-42.66 276 -43.32 276 -44 276 C-45.266 278.532 -45.403 280.697 -45.724 283.516 C-45.858 284.671 -45.992 285.827 -46.129 287.017 C-46.271 288.272 -46.413 289.527 -46.559 290.82 C-46.787 292.788 -47.015 294.756 -47.243 296.724 C-47.805 301.582 -48.359 306.44 -48.913 311.299 C-49.224 314.021 -49.537 316.742 -49.854 319.463 C-50.151 322.025 -50.444 324.587 -50.732 327.149 C-52.724 344.252 -52.724 344.252 -58.562 351 C-59.368 351.949 -60.174 352.898 -61.004 353.875 C-61.663 354.576 -62.321 355.277 -63 356 C-63.33 356 -63.66 356 -64 356 C-63.41 342.651 -62.157 329.462 -60.579 316.197 C-60.293 313.781 -60.017 311.365 -59.742 308.949 C-59.608 307.859 -59.608 307.859 -59.471 306.746 C-59.041 302.933 -58.987 299.715 -60 296 C-60.66 296.33 -61.32 296.66 -62 297 C-62.613 299.887 -62.613 299.887 -62.961 303.448 C-63.04 304.121 -63.118 304.794 -63.199 305.487 C-63.456 307.721 -63.701 309.956 -63.945 312.191 C-64.121 313.737 -64.298 315.283 -64.475 316.828 C-64.94 320.903 -65.394 324.978 -65.846 329.054 C-66.308 333.211 -66.782 337.366 -67.254 341.521 C-68.18 349.68 -69.093 357.839 -70 366 C-70.66 365.67 -71.32 365.34 -72 365 C-71.67 345.2 -71.34 325.4 -71 305 C-71.99 305.33 -72.98 305.66 -74 306 C-74.66 327.78 -75.32 349.56 -76 372 C-78.393 369.607 -78.409 368.612 -78.87 365.323 C-79.01 364.351 -79.15 363.38 -79.294 362.38 C-79.437 361.327 -79.579 360.275 -79.727 359.191 C-79.879 358.114 -80.032 357.036 -80.189 355.926 C-80.51 353.644 -80.828 351.362 -81.142 349.079 C-81.623 345.579 -82.115 342.082 -82.609 338.584 C-82.92 336.37 -83.23 334.156 -83.539 331.941 C-83.759 330.366 -83.759 330.366 -83.984 328.759 C-84.118 327.785 -84.251 326.811 -84.389 325.807 C-84.507 324.949 -84.626 324.091 -84.748 323.208 C-85 321 -85 321 -85 318 C-86.32 318 -87.64 318 -89 318 C-88.9 318.673 -88.8 319.347 -88.696 320.041 C-87.652 327.064 -86.615 334.089 -85.582 341.114 C-85.196 343.734 -84.808 346.354 -84.418 348.973 C-83.857 352.743 -83.303 356.514 -82.75 360.285 C-82.575 361.452 -82.4 362.619 -82.22 363.821 C-80.064 378.635 -80.064 378.635 -82.969 382.871 C-84.222 384.141 -84.222 384.141 -85.5 385.438 C-86.335 386.302 -87.171 387.167 -88.031 388.059 C-88.681 388.699 -89.331 389.34 -90 390 C-92.1 386.246 -93.26 382.219 -94.5 378.125 C-94.927 376.732 -95.354 375.338 -95.781 373.945 C-95.984 373.275 -96.187 372.605 -96.396 371.914 C-96.944 370.177 -97.569 368.465 -98.203 366.758 C-99.04 363.861 -98.95 362.615 -98.25 359.75 C-96.471 345.195 -107.274 327.863 -113 315 C-112.6 314.475 -112.2 313.949 -111.789 313.408 C-109.096 309.848 -106.444 306.319 -104.125 302.5 C-103.715 301.83 -103.305 301.159 -102.883 300.469 C-102.591 299.984 -102.3 299.499 -102 299 C-101.34 299.33 -100.68 299.66 -100 300 C-99.269 302.314 -98.599 304.648 -98 307 C-89.892 304.789 -85.245 297.419 -81.289 290.512 C-79.53 287.084 -78.218 283.654 -77 280 C-76.423 280.309 -75.845 280.619 -75.25 280.938 C-73.151 281.929 -71.249 282.475 -69 283 C-63.936 272.07 -60.949 261.655 -61 249.562 C-60.659 243.659 -60.659 243.659 -57.953 240.953 C-56.083 239.818 -54.172 238.749 -52.234 237.734 C-33.226 227.541 -22.83 207.949 -16.797 188.043 C-11.082 166.221 -15.267 142.037 -25 122 C-26.568 119.506 -28.175 117.146 -29.996 114.832 C-31 113 -31 113 -30.949 111 C-29.631 108.223 -27.836 107.012 -25.375 105.188 C-7.245 91.12 2.979 70.676 6 48 C7.309 34.573 5.045 22.034 2 9 C1.62 7.305 1.243 5.61 0.867 3.914 C0.701 3.163 0.534 2.413 0.363 1.639 C0.243 1.098 0.123 0.557 0 0 Z " fill="#030303" transform="translate(631,384)"/>
<path d="M0 0 C5.767 2.855 11.157 4.977 17.462 6.25 C24.249 7.699 28.014 9.773 32.525 15 C33.476 16.052 33.476 16.052 34.447 17.125 C35.643 18.469 36.823 19.827 37.982 21.203 C39.428 22.887 40.935 24.453 42.525 26 C42.03 26.99 42.03 26.99 41.525 28 C37.565 26.68 33.605 25.36 29.525 24 C39.129 32.977 48.859 35.923 61.525 38 C58.561 40.472 55.984 41.662 52.275 42.687 C51.383 42.939 50.491 43.19 49.572 43.449 C48.896 43.631 48.221 43.812 47.525 44 C57.746 44.413 66.435 44.409 76.119 40.777 C78.525 40 78.525 40 80.525 41 C77.555 44.63 74.585 48.26 71.525 52 C76.026 50.499 79.007 49.295 82.9 46.875 C84.426 45.926 85.952 44.977 87.525 44 C87.195 48.29 86.865 52.58 86.525 57 C87.453 55.267 88.381 53.535 89.337 51.75 C93.011 44.893 93.011 44.893 95.525 42 C96.185 42 96.845 42 97.525 42 C97.62 43.112 97.62 43.112 97.716 44.246 C99.203 57.035 104.161 68.316 110.712 79.312 C114.322 85.374 118.525 92.726 118.525 100 C115.555 99.67 112.585 99.34 109.525 99 C109.923 99.545 110.322 100.09 110.732 100.652 C118.013 111.016 121.006 122.113 118.9 134.75 C117.323 140.474 114.527 145.9 111.525 151 C110.865 151.33 110.205 151.66 109.525 152 C109.066 150.77 108.607 149.54 108.134 148.273 C107.515 146.64 106.895 145.007 106.275 143.375 C105.975 142.567 105.674 141.758 105.365 140.926 C102.505 132.747 102.505 132.747 96.525 127 C96.571 128.244 96.618 129.488 96.666 130.769 C97.017 144.105 95.975 154.804 86.525 165 C78.786 172.579 78.786 172.579 74.525 174 C75.192 166 75.858 158 76.525 150 C75.865 150 75.205 150 74.525 150 C74.413 150.732 74.301 151.464 74.185 152.219 C72.705 158.453 68.753 163.558 63.4 167 C58.496 169.836 54.417 170.119 48.775 170.062 C47.604 170.053 46.434 170.044 45.228 170.035 C44.336 170.023 43.444 170.012 42.525 170 C42.741 169.047 42.958 168.095 43.181 167.113 C43.599 165.232 43.599 165.232 44.025 163.312 C44.303 162.071 44.582 160.83 44.869 159.551 C45.418 156.576 45.663 154.006 45.525 151 C44.742 151.506 44.742 151.506 43.943 152.023 C37.464 155.949 30.521 159.026 22.826 157.445 C20.661 156.731 18.595 155.951 16.525 155 C16.525 152 16.525 152 18.24 150.246 C18.973 149.649 19.707 149.052 20.462 148.437 C23.451 146.087 23.451 146.087 25.525 143 C24.782 143.33 24.04 143.66 23.275 144 C17.309 145.591 10.453 146.464 4.791 143.633 C0.031 140.203 -1.692 136.088 -2.913 130.5 C-4.244 121.13 -1.902 112.254 2.525 104 C2.017 104.447 1.509 104.894 0.986 105.355 C0.297 105.96 -0.391 106.564 -1.1 107.187 C-1.773 107.779 -2.446 108.371 -3.139 108.98 C-3.91 109.647 -4.681 110.313 -5.475 111 C-6.419 111.825 -7.362 112.65 -8.334 113.5 C-16.18 119.989 -24.821 123.87 -35.049 123.441 C-37.475 123 -37.475 123 -40.475 121 C-41.163 118.875 -41.163 118.875 -41.475 117 C-42.465 117.33 -43.455 117.66 -44.475 118 C-52.18 118.629 -59.487 116.926 -65.663 112.187 C-73.047 105.147 -78.011 93.614 -78.628 83.492 C-78.671 80.825 -78.65 78.167 -78.6 75.5 C-78.591 74.582 -78.582 73.664 -78.573 72.719 C-78.549 70.479 -78.517 68.239 -78.475 66 C-80.125 66.99 -81.775 67.98 -83.475 69 C-86.554 57.519 -79.894 45.769 -74.475 36 C-76.785 36 -79.095 36 -81.475 36 C-79.974 25.268 -76.026 16.906 -67.475 10 C-64.784 8.418 -63.667 8 -60.475 8 C-61.795 6.35 -63.115 4.7 -64.475 3 C-46.408 -18.414 -21.541 -10.863 0 0 Z M-75.475 30 C-74.475 32 -74.475 32 -74.475 32 Z M6.525 40 C6.855 40.66 7.185 41.32 7.525 42 C8.185 41.34 8.845 40.68 9.525 40 C8.535 40 7.545 40 6.525 40 Z M-78.475 60 C-78.805 60.66 -79.135 61.32 -79.475 62 C-78.815 62 -78.155 62 -77.475 62 C-77.805 61.34 -78.135 60.68 -78.475 60 Z M10.525 61 C11.185 61.66 11.845 62.32 12.525 63 C12.855 62.34 13.185 61.68 13.525 61 C12.535 61 11.545 61 10.525 61 Z M20.525 74 C21.525 76 21.525 76 21.525 76 Z " fill="#3C3C3C" transform="translate(414.47509765625,496.000244140625)"/>
<path d="M0 0 C4.262 1.598 8.107 3.781 12 6.125 C11.814 7.981 11.814 7.981 11.625 9.875 C11.6 17.877 16.475 24.576 20.438 31.25 C20.953 32.199 21.469 33.147 22 34.125 C21.67 34.785 21.34 35.445 21 36.125 C20.175 35.738 19.35 35.352 18.5 34.953 C0.073 26.645 -20.83 21.659 -40.516 28.926 C-44.024 30.619 -45.826 31.865 -48 35.125 C-49.342 40.037 -48.712 42.786 -46.625 47.375 C-45.933 48.93 -45.933 48.93 -45.227 50.516 C-44.501 52.06 -43.763 53.599 -43 55.125 C-44.375 54.981 -45.75 54.835 -47.125 54.688 C-47.891 54.606 -48.656 54.525 -49.445 54.441 C-51.198 54.224 -52.943 53.942 -54.676 53.605 C-69.097 51.521 -87.579 51.483 -100 60.125 C-102.694 62.337 -104.648 64.567 -105.441 68.078 C-105.832 74.675 -102.409 78.451 -98.355 83.305 C-97.578 84.235 -96.801 85.166 -96 86.125 C-96.919 86.184 -96.919 86.184 -97.857 86.245 C-121.291 87.76 -121.291 87.76 -143 96.125 C-144.485 96.62 -144.485 96.62 -146 97.125 C-148.232 101.119 -148.686 104.627 -148 109.125 C-145.93 112.068 -143.564 114.607 -141 117.125 C-142.461 120.047 -144.412 120.183 -147.438 121.312 C-155.516 124.586 -164.202 128.839 -168 137.125 C-168.578 141.245 -168.499 143.281 -166.375 146.875 C-163.769 149.344 -161.283 150.707 -158 152.125 C-159.406 155.497 -160.958 157.107 -163.938 159.188 C-166.006 160.645 -167.868 161.988 -169.629 163.809 C-171 165.125 -171 165.125 -173 165.125 C-173.248 165.641 -173.495 166.156 -173.75 166.688 C-175 169.125 -175 169.125 -177.125 172.375 C-179.503 176.597 -179.841 179.311 -179 184.125 C-175.212 189.207 -169.866 191.273 -164 193.125 C-165.323 196.941 -166.948 199.435 -169.625 202.438 C-175.572 209.714 -182.354 219.727 -182.688 229.438 C-181.988 233.192 -181.842 233.903 -179 236.125 C-176.967 236.903 -176.967 236.903 -174.812 237.312 C-173.554 237.581 -172.296 237.849 -171 238.125 C-172.977 243.554 -175.842 248.496 -178.635 253.535 C-182.045 259.834 -185.455 266.679 -185.375 274 C-185.383 274.719 -185.39 275.439 -185.398 276.18 C-184.873 278.746 -184.073 279.541 -182 281.125 C-179.401 282.315 -179.401 282.315 -177 283.125 C-177.424 284.132 -177.848 285.139 -178.285 286.176 C-181.641 294.195 -184.9 302.253 -188 310.375 C-188.472 311.571 -188.472 311.571 -188.953 312.79 C-191.108 318.374 -191.108 318.374 -190 324.125 C-187.524 325.5 -187.524 325.5 -185 326.125 C-185.567 331.128 -187.855 334.875 -190.375 339.125 C-190.815 339.871 -191.256 340.617 -191.71 341.386 C-196.879 349.9 -204.937 362.593 -214 367.125 C-215.567 359.708 -216.302 352.645 -216.319 345.073 C-216.329 344.015 -216.339 342.958 -216.349 341.869 C-216.38 338.351 -216.397 334.834 -216.414 331.316 C-216.433 328.776 -216.453 326.236 -216.473 323.695 C-216.52 317.514 -216.557 311.334 -216.59 305.153 C-216.617 300.118 -216.647 295.084 -216.681 290.049 C-216.978 244.812 -217.1 199.573 -217.121 154.334 C-217.124 149.647 -217.127 144.96 -217.131 140.273 C-217.138 132.129 -217.14 123.985 -217.134 115.841 C-217.133 113.127 -217.134 110.413 -217.136 107.699 C-217.139 103.992 -217.135 100.285 -217.129 96.579 C-217.131 95.497 -217.133 94.415 -217.136 93.3 C-217.122 88.463 -217.024 83.879 -216 79.125 C-214.772 78.785 -213.544 78.444 -212.28 78.094 C-167.835 65.738 -123.887 52.178 -81 35.125 C-80.374 34.877 -79.747 34.629 -79.102 34.374 C-62.792 27.914 -46.755 20.862 -30.75 13.688 C-29.88 13.298 -29.01 12.909 -28.113 12.508 C-25.61 11.387 -23.109 10.259 -20.609 9.129 C-19.873 8.799 -19.137 8.469 -18.378 8.129 C-13.747 6.024 -9.341 3.676 -4.959 1.09 C-3 0.125 -3 0.125 0 0 Z " fill="#010101" transform="translate(449,313.875)"/>
<path d="M0 0 C5.989 1.315 9.388 4.22 13 9 C21.399 23.443 25.684 38.173 25 55 C36.113 43.887 37.296 17.674 39 3 C49.653 8.991 55.064 19.537 58.66 30.906 C60.552 38.112 60.328 45.293 60.188 52.688 C60.172 54.083 60.159 55.478 60.146 56.873 C60.111 60.249 60.062 63.624 60 67 C72.245 53.196 80.606 38.956 85 21 C85.99 21 86.98 21 88 21 C96.181 31.278 98.225 45.222 97 58 C94.085 75.917 84.886 91.915 70.414 102.977 C63.429 108 63.429 108 61 108 C60.01 104.04 60.01 104.04 59 100 C58.611 100.641 58.221 101.281 57.82 101.941 C52.182 110.659 44.434 117.742 34 120 C28.273 120.695 23.903 120.307 19 117 C16.804 114.663 15.087 112.126 13.27 109.488 C12.644 108.585 12.019 107.681 11.375 106.75 C10.785 105.879 10.194 105.007 9.586 104.109 C8.169 101.899 8.169 101.899 6 101 C6.33 103.64 6.66 106.28 7 109 C5.833 108.125 4.667 107.25 3.5 106.375 C2.767 105.827 2.033 105.279 1.277 104.715 C-0.156 103.635 -1.582 102.546 -2.996 101.441 C-7.763 97.748 -12.673 94.83 -18 92 C-16.68 94.97 -15.36 97.94 -14 101 C-14.753 100.939 -15.506 100.879 -16.281 100.816 C-25.182 100.114 -34.088 99.538 -43 99 C-40.03 100.65 -37.06 102.3 -34 104 C-34.33 104.66 -34.66 105.32 -35 106 C-42.231 108.102 -49.703 109.275 -57.207 109.789 C-59.021 109.815 -59.021 109.815 -60 111 C-57.36 111.99 -54.72 112.98 -52 114 C-58.791 120.791 -69.415 121.403 -78.625 121.438 C-93.398 121.236 -109.653 116.954 -121 107 C-125.818 101.027 -127.512 95.686 -127 88 C-125.614 81.822 -123.231 78.523 -118 75 C-115.809 74.371 -115.809 74.371 -114 74 C-114.087 73.056 -114.087 73.056 -114.176 72.094 C-114.53 65.376 -113.521 61.073 -109 56 C-103.461 51.128 -99.104 49.871 -91.812 49.938 C-90.54 49.947 -89.268 49.956 -87.957 49.965 C-86.493 49.982 -86.493 49.982 -85 50 C-85 50.66 -85 51.32 -85 52 C-82.03 52.495 -82.03 52.495 -79 53 C-78.722 51.948 -78.722 51.948 -78.438 50.875 C-75.449 44.898 -69.675 41.166 -63.582 38.695 C-53.603 36.008 -44.946 38.245 -36.121 43.016 C-33.863 44.387 -32.249 45.477 -31.098 47.895 C-29.76 50.46 -28.15 51.837 -25.938 53.688 C-25.225 54.289 -24.512 54.891 -23.777 55.512 C-23.191 56.003 -22.604 56.494 -22 57 C-21.67 57.33 -21.34 57.66 -21 58 C-20.72 56.863 -20.441 55.726 -20.152 54.555 C-16.712 41.102 -11.468 29.97 -4.219 18.094 C-0.883 12.363 -0.487 6.48 0 0 Z " fill="#3C3C3C" transform="translate(501,367)"/>
<path d="M0 0 C2.497 1.066 5.008 2.083 7.533 3.082 C6.44 5.961 5.788 6.941 3.033 8.457 C-0.739 10.908 -0.981 14.016 -1.967 18.207 C-2.467 20.082 -2.467 20.082 -3.592 21.894 C-4.905 25.175 -4.22 27.696 -3.467 31.082 C-2.807 31.742 -2.147 32.402 -1.467 33.082 C-1.768 33.734 -2.068 34.386 -2.377 35.058 C-5.473 41.871 -5.473 41.871 -4.467 49.082 C-3.239 50.727 -3.239 50.727 -1.467 52.082 C3.421 56.271 3.421 56.271 4.033 60.707 C4.157 64.242 4.157 64.242 6.97 65.957 C8.239 66.513 8.239 66.513 9.533 67.082 C10.193 67.412 10.853 67.742 11.533 68.082 C10.152 73.482 7.718 76.712 4.095 80.769 C3.56 81.378 3.025 81.986 2.474 82.614 C-8.771 95.286 -20.888 108.494 -37.78 112.957 C-40.739 113.094 -42.094 112.839 -44.467 111.082 C-45.467 108.082 -45.467 108.082 -44.467 105.082 C-45.148 105.391 -45.829 105.7 -46.53 106.019 C-53.031 108.371 -59.075 108.83 -65.467 106.082 C-75.014 99.736 -80.434 90.739 -82.905 79.644 C-84.262 70.049 -82.965 61.053 -79.467 52.082 C-80.045 52.432 -80.622 52.783 -81.217 53.144 C-83.825 54.231 -84.861 54.012 -87.467 53.082 C-87.286 42.553 -82.224 33.016 -75.467 25.082 C-79.427 24.587 -79.427 24.587 -83.467 24.082 C-83.199 17.651 -81.037 13.623 -76.467 9.082 C-71.533 5.535 -66.351 3.459 -60.467 2.082 C-60.467 1.422 -60.467 0.762 -60.467 0.082 C-61.272 -0.187 -62.076 -0.455 -62.905 -0.731 C-63.75 -1.123 -64.596 -1.515 -65.467 -1.918 C-65.797 -2.908 -66.127 -3.898 -66.467 -4.918 C-50.382 -24.5 -17.833 -7.728 0 0 Z " fill="#ECC128" transform="translate(423.46728515625,502.91845703125)"/>
<path d="M0 0 C5.893 0.59 8.098 3.875 11.789 8.18 C26.153 26.502 29.474 48.267 28 71 C25.954 87.255 17.423 101.596 6 113 C5.34 113 4.68 113 4 113 C3.902 112.082 3.804 111.164 3.703 110.219 C2.681 101.827 1.78 94.885 -4.25 88.688 C-8.317 86.192 -12.545 84.47 -17.246 83.57 C-29.253 81.007 -38.498 70.104 -46.133 61.059 C-47.919 58.931 -47.919 58.931 -50.211 57.48 C-52 56 -52 56 -52.531 54.055 C-52.418 46.187 -50.167 40.028 -44.812 34.188 C-41.041 30.662 -36.809 28.756 -32 27 C-32.052 25.822 -32.052 25.822 -32.105 24.621 C-32.269 18.26 -32.361 13.49 -29 8 C-24.91 3.823 -21.647 1.84 -15.812 1.688 C-10.35 1.709 -7.412 2.863 -3 6 C-2.01 4.02 -1.02 2.04 0 0 Z " fill="#3C3C3C" transform="translate(575,493)"/>
<path d="M0 0 C5.893 0.59 8.098 3.875 11.789 8.18 C23.799 23.5 30.149 43.505 28 63 C27.395 66.374 26.609 69.682 25.75 73 C25.546 73.801 25.341 74.602 25.13 75.427 C23.777 80.295 22.119 84.007 19 88 C18.01 88.495 18.01 88.495 17 89 C17.205 88.152 17.41 87.304 17.621 86.43 C22.361 65.792 22.718 43.628 12.117 24.625 C10.479 22.025 8.797 19.492 7 17 C6.636 17.808 6.273 18.616 5.898 19.449 C1.816 28.126 -1.014 32.555 -10.062 36.188 C-14.258 37.622 -18.297 38.414 -22.688 39 C-29.653 39.958 -35.08 41.618 -39.938 46.875 C-42.78 51.09 -42.78 51.09 -43 56 C-38.848 63.352 -29.053 75.123 -21 78 C-18.883 78.345 -16.756 78.632 -14.625 78.875 C-7.658 79.888 -4.127 81.776 0.75 86.875 C4.954 92.714 5.278 97.937 5.125 104.875 C5.116 105.659 5.107 106.442 5.098 107.25 C5.074 109.167 5.038 111.083 5 113 C4.67 113 4.34 113 4 113 C3.902 112.082 3.804 111.164 3.703 110.219 C2.681 101.827 1.78 94.885 -4.25 88.688 C-8.317 86.192 -12.545 84.47 -17.246 83.57 C-29.253 81.007 -38.498 70.104 -46.133 61.059 C-47.919 58.931 -47.919 58.931 -50.211 57.48 C-52 56 -52 56 -52.531 54.055 C-52.418 46.187 -50.167 40.028 -44.812 34.188 C-41.041 30.662 -36.809 28.756 -32 27 C-32.052 25.822 -32.052 25.822 -32.105 24.621 C-32.269 18.26 -32.361 13.49 -29 8 C-24.91 3.823 -21.647 1.84 -15.812 1.688 C-10.35 1.709 -7.412 2.863 -3 6 C-2.01 4.02 -1.02 2.04 0 0 Z " fill="#7E7D79" transform="translate(575,493)"/>
<path d="M0 0 C0 0.66 0 1.32 0 2 C-7.516 -0.412 -14.848 -3.217 -22.184 -6.127 C-30.588 -9.391 -38.457 -11.393 -47.5 -11.375 C-48.605 -11.376 -48.605 -11.376 -49.733 -11.377 C-55.581 -11.259 -59.937 -9.96 -65 -7 C-65.99 -6.67 -66.98 -6.34 -68 -6 C-68 -4.35 -68 -2.7 -68 -1 C-66.35 -0.34 -64.7 0.32 -63 1 C-63 1.66 -63 2.32 -63 3 C-63.724 3.315 -64.449 3.629 -65.195 3.953 C-74.086 7.889 -80.592 11.023 -85 20 C-85.852 22.807 -85.852 22.807 -86 25 C-83.03 25 -80.06 25 -77 25 C-78.473 27.472 -79.956 29.931 -81.5 32.359 C-86.046 39.604 -88.907 46.475 -90 55 C-86.04 54.01 -86.04 54.01 -82 53 C-82.228 54.016 -82.456 55.032 -82.691 56.078 C-85.647 69.922 -86.044 83.301 -78.25 95.75 C-74.137 101.446 -70.239 105.742 -63.25 107.5 C-57.62 108.384 -52.479 107.354 -47 106 C-47 107.98 -47 109.96 -47 112 C-40.418 113.675 -35.296 111.675 -29.363 108.66 C-17.693 101.692 -8.329 91.651 0.66 81.594 C2.711 79.321 4.813 77.141 7 75 C5.457 79.764 2.78 83.156 -0.312 87 C-0.786 87.603 -1.26 88.207 -1.748 88.828 C-4.632 92.458 -7.683 95.752 -11 99 C-11.697 99.79 -12.395 100.58 -13.113 101.395 C-20.424 109.432 -29.663 115.85 -40.59 117.562 C-45.296 117.654 -48.03 117.647 -52 115 C-52.688 112.875 -52.688 112.875 -53 111 C-53.99 111.33 -54.98 111.66 -56 112 C-63.705 112.629 -71.012 110.927 -77.188 106.188 C-84.572 99.148 -89.536 87.614 -90.153 77.492 C-90.196 74.825 -90.175 72.167 -90.125 69.5 C-90.116 68.582 -90.107 67.664 -90.098 66.719 C-90.074 64.479 -90.042 62.24 -90 60 C-91.65 60.99 -93.3 61.98 -95 63 C-98.079 51.519 -91.419 39.769 -86 30 C-88.31 30 -90.62 30 -93 30 C-91.499 19.268 -87.551 10.906 -79 4 C-76.309 2.418 -75.192 2 -72 2 C-73.32 0.35 -74.64 -1.3 -76 -3 C-55.538 -27.253 -22.423 -14.949 0 0 Z " fill="#7C7B77" transform="translate(426,502)"/>
<path d="M0 0 C1.155 2.281 2.071 4.421 2.938 6.812 C3.324 7.861 3.324 7.861 3.719 8.931 C6.972 18.188 11.401 31.099 10 41 C4.544 44.637 -1.607 44.607 -8 44 C-16.847 42.22 -23.391 39.115 -30 33 C-30.548 32.519 -31.096 32.038 -31.66 31.543 C-33.062 30.25 -33.062 30.25 -35 28 C-35 27.01 -35 26.02 -35 25 C-34.42 24.743 -33.84 24.487 -33.242 24.223 C-26.86 21.095 -22.995 17.508 -20 11 C-19.312 8.23 -19.104 5.873 -19 3 C-18.18 2.879 -17.36 2.758 -16.516 2.633 C-15.438 2.465 -14.36 2.298 -13.25 2.125 C-11.649 1.881 -11.649 1.881 -10.016 1.633 C-7.053 1.15 -7.053 1.15 -4.797 -0.133 C-3 -1 -3 -1 0 0 Z " fill="#030303" transform="translate(526,748)"/>
<path d="M0 0 C2.935 1.467 3.102 3.469 4.25 6.5 C9.436 19.283 16.567 27.919 29.109 33.844 C32.522 35.209 35.344 35.834 39 36 C38.505 34.783 38.01 33.566 37.5 32.312 C36.275 29.075 35.672 26.499 36 23 C39.777 27.683 39.777 27.683 41.473 30.09 C51.186 43.524 65.427 48.161 81 52 C81 52.33 81 52.66 81 53 C72.798 54.367 65.993 54.284 58 52 C63.964 62.37 69.645 71.037 81.59 74.82 C90.998 76.879 97.874 76.005 106.949 72.973 C109.632 72.117 112.231 71.488 115 71 C109.171 77.376 102.104 82.423 93.312 83.254 C82.345 83.688 74.18 80.201 66 73 C65.34 72.196 64.68 71.391 64 70.562 C61.986 68.627 61.986 68.627 58.688 69.25 C57.997 69.372 57.306 69.495 56.594 69.621 C43.416 71.546 31.976 69.547 21.074 61.836 C15.877 57.236 11.374 50.871 10 44 C9.925 41.668 9.907 39.331 10 37 C12.685 39.406 14.184 41.993 15.938 45.125 C22.671 55.797 33.096 61.537 45 65 C48.677 65.742 52.128 66.119 55.875 66.062 C56.656 66.053 57.437 66.044 58.242 66.035 C58.822 66.024 59.402 66.012 60 66 C59.723 65.252 59.446 64.505 59.16 63.734 C58.798 62.75 58.436 61.765 58.062 60.75 C57.703 59.775 57.343 58.801 56.973 57.797 C56 55 56 55 55.637 52.82 C54.709 50.168 53.138 49.525 50.75 48.125 C47.629 46.207 45.59 44.711 43.625 41.625 C41.344 38.792 41.344 38.792 38.711 38.766 C36.839 38.841 34.968 38.926 33.098 39.02 C23.422 38.959 15.849 35.064 9.094 28.363 C1.317 19.585 -0.425 11.535 0 0 Z " fill="#7E7D79" transform="translate(329,608)"/>
<path d="M0 0 C0.99 1.021 0.99 1.021 2 2.062 C2.463 2.515 2.926 2.967 3.402 3.434 C4.52 4.529 5.615 5.649 6.691 6.785 C12.15 12.152 17.549 13.696 25 15 C24.141 29.035 18.411 40.133 10 51 C5.467 49.542 2.322 46.978 -1.188 43.875 C-2.33 42.886 -3.473 41.897 -4.617 40.91 C-5.183 40.42 -5.748 39.931 -6.331 39.426 C-10.133 36.177 -14.072 33.094 -18 30 C-16.561 26.711 -14.749 24.557 -12.25 22 C-6.414 15.591 -3.125 8.003 0 0 Z " fill="#030303" transform="translate(326,772)"/>
<path d="M0 0 C4.368 3.149 7.968 6.778 9.688 11.938 C10.441 18.599 10.175 23.753 6.188 29.281 C2.783 33.041 -1.261 35.635 -6.363 36.141 C-11.469 36.246 -14.978 35.923 -19.312 32.938 C-24.033 28.353 -27.007 24.238 -27.625 17.562 C-27.089 11.343 -24.652 6.4 -20.312 1.938 C-14.277 -2.332 -6.853 -2.198 0 0 Z " fill="#D783AA" transform="translate(491.3125,484.0625)"/>
<path d="M0 0 C5.893 0.59 8.098 3.875 11.789 8.18 C23.799 23.5 30.149 43.505 28 63 C27.395 66.374 26.609 69.682 25.75 73 C25.546 73.801 25.341 74.602 25.13 75.427 C23.777 80.295 22.119 84.007 19 88 C18.01 88.495 18.01 88.495 17 89 C17.205 88.152 17.41 87.304 17.621 86.43 C22.361 65.792 22.718 43.628 12.117 24.625 C10.479 22.025 8.797 19.492 7 17 C6.636 17.808 6.273 18.616 5.898 19.449 C1.816 28.126 -1.014 32.555 -10.062 36.188 C-14.258 37.622 -18.297 38.414 -22.688 39 C-31.394 40.207 -36.499 42.685 -41.969 49.609 C-42.479 50.298 -42.479 50.298 -43 51 C-44 48 -44 48 -42.938 45.125 C-37.845 36.911 -30.061 34.589 -21.23 31.816 C-20.573 31.608 -19.915 31.4 -19.238 31.186 C-17.335 30.589 -15.426 30.015 -13.516 29.441 C-8.822 27.517 -5.183 25.312 -2.793 20.641 C-2.593 19.852 -2.393 19.063 -2.188 18.25 C-1.968 17.391 -1.749 16.533 -1.523 15.648 C-0.756 11.767 -0.318 7.944 0 4 C-0.66 4.66 -1.32 5.32 -2 6 C-1.494 3.831 -1 2 0 0 Z " fill="#949691" transform="translate(575,493)"/>
<path d="M0 0 C2.276 2.112 3.787 4.18 5.312 6.875 C8.046 11.374 11.225 14.612 16 17 C17.871 17.228 19.747 17.41 21.625 17.562 C22.628 17.646 23.631 17.73 24.664 17.816 C25.435 17.877 26.206 17.938 27 18 C24.37 28.7 21.696 38.99 17 49 C10.029 46.948 4.614 43.073 -1.375 39.062 C-2.504 38.326 -3.633 37.589 -4.762 36.854 C-5.817 36.15 -6.873 35.447 -7.961 34.723 C-8.928 34.081 -9.895 33.439 -10.892 32.778 C-11.588 32.191 -12.283 31.604 -13 31 C-13 27.291 -12.057 26.507 -9.812 23.625 C-4.711 16.578 -1.49 8.574 0 0 Z " fill="#040404" transform="translate(354,797)"/>
<path d="M0 0 C5.863 4.499 10.308 10.068 11.812 17.391 C12.727 24.443 11.754 30.406 7.812 36.391 C2.159 42.963 -4.15 45.749 -12.625 46.828 C-20.408 45.872 -26.499 43.008 -31.785 37.188 C-36.478 31.174 -37.802 24.885 -37.188 17.391 C-35.201 9.177 -31.027 4.216 -24.188 -0.609 C-17.163 -4.356 -6.86 -4.059 0 0 Z M-28.625 11.453 C-31.17 16.237 -31.642 19.933 -31.188 25.391 C-29.207 31.558 -25.533 35.806 -20.188 39.391 C-14.613 41.249 -9.245 41.197 -3.875 38.703 C0.85 36.045 3.712 32.349 5.812 27.391 C6.748 20.289 6.158 15.109 1.812 9.391 C-2.528 5.039 -6.23 3.241 -12.375 3.016 C-19.781 3.094 -24.074 5.735 -28.625 11.453 Z " fill="#3C3C3C" transform="translate(495.1875,479.609375)"/>
<path d="M0 0 C3.556 2.894 6.897 5.852 10.043 9.188 C18.059 18.051 18.059 18.051 29 22 C29.915 22.122 30.83 22.245 31.773 22.371 C34.183 22.644 36.58 22.853 39 23 C36.951 30.285 32.695 35.099 26.241 39.087 C15.626 45 15.626 45 12 45 C10.515 39.555 10.515 39.555 9 34 C11.31 34.66 13.62 35.32 16 36 C12.988 23.784 7.91 14.067 0.93 3.625 C0 2 0 2 0 0 Z " fill="#7D7C78" transform="translate(530,568)"/>
<path d="M0 0 C1.052 0.268 2.104 0.536 3.188 0.812 C2.857 1.803 2.528 2.793 2.188 3.812 C3.178 3.483 4.168 3.152 5.188 2.812 C6.281 13.961 0.964 23.748 -5.695 32.367 C-9.948 37.279 -14.875 42.018 -20.812 44.812 C-21.472 44.483 -22.133 44.153 -22.812 43.812 C-22.365 43.265 -21.918 42.717 -21.457 42.152 C-13.592 31.839 -10.514 20.598 -9.562 7.836 C-8.223 2.437 -5.581 -0.274 0 0 Z " fill="#3C3C3C" transform="translate(611.8125,425.1875)"/>
<path d="M0 0 C0.33 0 0.66 0 1 0 C3.872 11.847 -0.213 22.128 -6 32.438 C-13.4 45.811 -14.576 57.983 -14 73 C-16 72 -16 72 -17.625 68.438 C-21.289 56.619 -19.663 43.17 -14.106 32.242 C-12.468 29.21 -10.733 26.242 -8.965 23.285 C-4.389 15.634 -1.265 8.876 0 0 Z " fill="#7E7E7A" transform="translate(501,370)"/>
<path d="M0 0 C1.272 0.009 2.545 0.018 3.855 0.027 C5.319 0.045 5.319 0.045 6.812 0.062 C4.407 1.286 1.985 2.445 -0.465 3.578 C-1.685 4.156 -2.905 4.734 -4.125 5.312 C-4.733 5.587 -5.341 5.862 -5.967 6.145 C-11.26 8.691 -14.912 11.843 -17.113 17.398 C-17.305 18.408 -17.305 18.408 -17.5 19.438 C-17.727 20.634 -17.954 21.83 -18.188 23.062 C-15.877 23.392 -13.567 23.723 -11.188 24.062 C-13.728 25.756 -15.762 26.723 -18.562 27.812 C-24.517 30.432 -26.968 33.667 -29.938 39.5 C-31.185 43.057 -31.806 46.321 -32.188 50.062 C-34.188 49.062 -34.188 49.062 -34.812 47.438 C-35.81 41.121 -35.34 35.652 -32.188 30.062 C-29.338 26.83 -26.423 24.932 -22.188 24.062 C-22.275 23.119 -22.275 23.119 -22.363 22.156 C-22.717 15.439 -21.708 11.136 -17.188 6.062 C-11.649 1.19 -7.291 -0.067 0 0 Z " fill="#7E7E7A" transform="translate(409.1875,416.9375)"/>
<path d="M0 0 C0.949 0.846 1.897 1.691 2.875 2.562 C15.39 13.175 28.186 19.817 44.973 18.824 C47.326 18.602 49.66 18.336 52 18 C46.758 23.846 41.451 25.516 33.797 25.992 C24.391 26.018 16.543 22.301 9.73 15.852 C0 5.273 0 5.273 0 0 Z " fill="#7C7B77" transform="translate(456,810)"/>
<path d="M0 0 C-2.242 1.725 -4.504 3.329 -6.875 4.875 C-16.545 11.451 -20.657 18.497 -23 30 C-22.402 29.649 -21.804 29.299 -21.188 28.938 C-19 28 -19 28 -16 29 C-16.459 29.34 -16.918 29.681 -17.391 30.031 C-25.542 36.47 -27.307 42.974 -28.493 53.072 C-28.672 54.714 -28.837 56.357 -29 58 C-32.467 54.533 -32.699 49.76 -33 45 C-32.336 41.02 -31.412 37.309 -28.391 34.508 C-26.818 33.1 -26.818 33.1 -26.777 31.055 C-26.83 30.335 -26.883 29.616 -26.938 28.875 C-27.177 20.666 -25.483 13.325 -20 7 C-14.036 2.155 -7.733 -0.368 0 0 Z " fill="#80807C" transform="translate(371,426)"/>
<path d="M0 0 C2.951 1.717 4.921 3.606 7.102 6.223 C5.947 5.893 4.792 5.563 3.602 5.223 C-8.179 2.681 -19.319 3.107 -29.898 9.223 C-32.056 10.782 -33.936 12.415 -35.898 14.223 C-36.558 14.223 -37.218 14.223 -37.898 14.223 C-38.167 14.841 -38.435 15.46 -38.711 16.098 C-39.898 18.223 -39.898 18.223 -42.898 20.223 C-41.503 12.934 -37.706 7.201 -31.836 2.609 C-21.772 -3.852 -11.083 -5.036 0 0 Z " fill="#7E7D79" transform="translate(460.8984375,407.77734375)"/>
<path d="M0 0 C2.636 2.561 4.999 4.998 7.254 7.918 C9.934 11.155 13.078 13.204 16.75 15.188 C17.371 15.53 17.991 15.872 18.63 16.225 C27.216 20.859 35.389 22.618 45 24 C39.442 27.706 32.283 27.408 25.793 26.602 C16.224 24.513 8.613 20.09 3 12 C0.888 7.848 -0.426 4.681 0 0 Z " fill="#7C7B77" transform="translate(288,645)"/>
<path d="M0 0 C2.688 -0.375 2.688 -0.375 6 0 C9.634 3.239 10.803 4.75 11.562 9.562 C10.889 13.68 10.184 15.294 7 18 C3.012 19.349 0.022 19.422 -3.875 17.812 C-6.139 15.881 -7.112 14.825 -8 12 C-8.125 8.75 -8.125 8.75 -8 6 C-5.69 6.33 -3.38 6.66 -1 7 C-0.67 4.69 -0.34 2.38 0 0 Z " fill="#060606" transform="translate(481,492)"/>
<path d="M0 0 C1.888 2.342 3.767 4.671 5.508 7.125 C9.657 12.837 13.871 16.524 20 20 C20.938 20.551 20.938 20.551 21.895 21.113 C27.897 24.386 34.456 26.125 41 28 C41 28.33 41 28.66 41 29 C31.316 31.301 22.282 29.587 13.664 24.789 C5.958 19.614 2.234 12.937 0 4 C0 2.68 0 1.36 0 0 Z " fill="#7D7C78" transform="translate(298,616)"/>
<path d="M0 0 C3.008 1.249 5.677 2.696 8 5 C8 5.99 8 6.98 8 8 C7.361 7.67 6.721 7.34 6.062 7 C0.428 5.16 -4.806 5.155 -10.25 7.625 C-18.146 12.153 -20.35 18.678 -23 27 C-23.33 27 -23.66 27 -24 27 C-24.476 19.805 -24.5 13.904 -20 8 C-13.659 1.546 -9.192 -1.216 0 0 Z " fill="#7D7C78" transform="translate(534,430)"/>
<path d="M0 0 C0.516 0.66 1.031 1.32 1.562 2 C2.367 2.99 3.171 3.98 4 5 C4.486 5.628 4.972 6.256 5.473 6.902 C13.534 16.831 22.592 19.962 35 22 C35 22.66 35 23.32 35 24 C24.741 25.316 17.499 25.173 8.75 19.438 C4.271 15.846 1.854 11.381 0 6 C-0.312 2.375 -0.312 2.375 0 0 Z " fill="#7D7D78" transform="translate(293,585)"/>
<path d="M0 0 C0.33 0 0.66 0 1 0 C1.098 1.039 1.196 2.078 1.297 3.148 C2.559 15.367 5.094 24.344 13 34 C14.005 35.329 15.007 36.662 16 38 C9.004 36.572 4.635 33.671 0.449 27.84 C-3.448 21.089 -3.956 14.668 -3 7 C-2.241 4.369 -1.342 2.405 0 0 Z " fill="#7E7E7A" transform="translate(303,517)"/>
<path d="M0 0 C0 3 0 3 -1.812 5.438 C-8.185 14.577 -7.859 26.652 -6 37.125 C-5.676 38.752 -5.345 40.378 -5 42 C-9.624 37.751 -12.607 34.021 -13.434 27.668 C-13.443 18.886 -13.055 12.153 -6.73 5.676 C-4.542 3.701 -2.32 1.819 0 0 Z " fill="#807F7B" transform="translate(327,472)"/>
<path d="M0 0 C1.789 1.543 1.789 1.543 3 3 C3 3.66 3 4.32 3 5 C1.804 4.505 0.608 4.01 -0.625 3.5 C-9.785 0.485 -19.18 0.905 -27.914 4.93 C-28.602 5.283 -29.291 5.636 -30 6 C-30.75 6.374 -31.5 6.748 -32.273 7.133 C-32.843 7.419 -33.413 7.705 -34 8 C-32.609 2.744 -29.31 0.009 -25 -3 C-16.043 -7.284 -8.046 -5.156 0 0 Z " fill="#7E7D79" transform="translate(451,448)"/>
<path d="M0 0 C2.285 1.777 3.645 3.29 4.938 5.875 C5.034 9.14 3.651 11.249 2 14 C-0.841 15.42 -2.855 15.315 -6 15 C-8.375 13.438 -8.375 13.438 -10 11 C-10.562 7.5 -10.562 7.5 -10 4 C-6.985 0.641 -4.527 -0.929 0 0 Z " fill="#060606" transform="translate(560,501)"/>
<path d="M0 0 C0.33 0 0.66 0 1 0 C0.703 8.332 -0.368 13.048 -6.125 19.312 C-10.304 21.766 -14.181 22.323 -19 22 C-22.684 20.792 -25.312 19.078 -27.438 15.75 C-27.623 15.173 -27.809 14.595 -28 14 C-26.804 14.33 -25.608 14.66 -24.375 15 C-19.161 16.265 -15.616 16.635 -10.5 14.625 C-5.189 11.368 -2.701 5.401 0 0 Z " fill="#7D7C78" transform="translate(498,593)"/>
<path d="M0 0 C0.99 0.33 1.98 0.66 3 1 C-4.098 7.575 -10.019 12.016 -20 12 C-25.268 11.375 -29.624 10.106 -34 7 C-33.67 6.34 -33.34 5.68 -33 5 C-31.277 5.07 -31.277 5.07 -29.52 5.141 C-18.886 5.436 -9.725 4.862 0 0 Z " fill="#7D7C78" transform="translate(487,690)"/>
<path d="M0 0 C0.66 0 1.32 0 2 0 C2.291 0.641 2.583 1.281 2.883 1.941 C8.101 12.951 14.145 18.669 25 24 C25 24.33 25 24.66 25 25 C17.382 24.688 10.604 23.895 5.207 18.062 C1.694 13.523 -0.147 10.154 -0.062 4.312 C-0.053 3.504 -0.044 2.696 -0.035 1.863 C-0.024 1.248 -0.012 0.634 0 0 Z " fill="#7F7E7A" transform="translate(297,559)"/>
<path d="M0 0 C2.346 1.964 4.042 3.691 5.688 6.25 C5.357 6.91 5.028 7.57 4.688 8.25 C3.718 7.755 2.749 7.26 1.75 6.75 C-3.317 4.615 -8.295 4.162 -13.523 6.047 C-17.055 7.754 -20.292 9.733 -23.312 12.25 C-22.991 6.948 -20.019 3.757 -16.312 0.25 C-11.029 -2.948 -5.309 -2.805 0 0 Z " fill="#7C7B77" transform="translate(556.3125,446.75)"/>
<path d="M0 0 C0.33 0.66 0.66 1.32 1 2 C-1.329 6.837 -3.452 9.968 -8 13 C-12.07 14.357 -15.744 14.525 -20 14 C-24.42 11.748 -27.112 8.999 -30 5 C-27 5 -27 5 -24.375 6.5 C-19.015 8.882 -14.297 8.856 -8.812 6.812 C-5.616 4.753 -2.852 2.513 0 0 Z " fill="#7D7C78" transform="translate(489,625)"/>
<path d="M0 0 C2.252 2.688 3.882 4.646 5 8 C7.247 9.15 7.247 9.15 10 10 C10.908 10.392 11.815 10.784 12.75 11.188 C18.276 12.569 23.562 11.439 29 10 C28.001 12.896 27.039 13.973 24.5 15.75 C19.875 17.402 15.859 17.712 11 17 C6.013 14.507 2.503 11.006 0 6 C-0.04 4 -0.043 2 0 0 Z " fill="#7D7C78" transform="translate(432,601)"/>
<path d="M0 0 C0.33 0.66 0.66 1.32 1 2 C-0.699 7.098 -3.269 11.312 -8 14 C-12.217 15.257 -15.145 15.306 -19.312 13.812 C-21.894 12.072 -23.37 10.626 -25 8 C-24.67 7.34 -24.34 6.68 -24 6 C-22.979 6.742 -22.979 6.742 -21.938 7.5 C-18.282 9.367 -16.067 9.428 -12 9 C-6.778 7.082 -3.722 3.988 0 0 Z " fill="#7D7C78" transform="translate(482,579)"/>
<path d="M0 0 C2.937 1.71 5.47 3.739 8 6 C5 7 5 7 1.625 6.438 C-4.332 5.545 -10.139 6.919 -16 8 C-14.63 5.148 -13.446 3.055 -11 1 C-7.232 -0.256 -3.895 -0.765 0 0 Z " fill="#7D7C78" transform="translate(417,460)"/>
<path d="M0 0 C0.33 0.66 0.66 1.32 1 2 C-0.451 4.006 -1.91 6.005 -3.375 8 C-3.788 8.572 -4.2 9.145 -4.625 9.734 C-5.702 11.193 -6.847 12.601 -8 14 C-8.66 14 -9.32 14 -10 14 C-8.436 10.478 -6.305 7.729 -3.875 4.75 C-3.151 3.858 -2.426 2.966 -1.68 2.047 C-0.848 1.034 -0.848 1.034 0 0 Z " fill="#757471" transform="translate(432,577)"/>
<path d="M0 0 C2.387 2.963 4.735 5.943 7 9 C6.67 9.66 6.34 10.32 6 11 C4.125 10.812 4.125 10.812 2 10 C0.123 6.622 -0.218 3.824 0 0 Z " fill="#888883" transform="translate(365,631)"/>
<path d="M0 0 C-0.33 0.99 -0.66 1.98 -1 3 C-3.066 3.949 -3.066 3.949 -5.562 4.688 C-6.389 4.939 -7.215 5.19 -8.066 5.449 C-8.704 5.631 -9.343 5.813 -10 6 C-4.4 0 -4.4 0 0 0 Z " fill="#8B8C87" transform="translate(283,709)"/>
<path d="M0 0 C0.66 0.33 1.32 0.66 2 1 C0.606 5.435 -1.606 7.874 -5 11 C-3.55 7.209 -1.848 3.613 0 0 Z " fill="#8F908B" transform="translate(570,419)"/>
<path d="M0 0 C3.96 0 7.92 0 12 0 C8.393 1.803 5.916 2.466 2 3 C2 2.34 2 1.68 2 1 C1.34 0.67 0.68 0.34 0 0 Z " fill="#8A8A86" transform="translate(404,417)"/>
<path d="M0 0 C2 1 2 1 3 3 C-0.3 3.66 -3.6 4.32 -7 5 C-7 4.34 -7 3.68 -7 3 C-4.696 1.933 -2.36 0.936 0 0 Z " fill="#1E1E1E" transform="translate(585,748)"/>
<path d="M0 0 C0.66 0.33 1.32 0.66 2 1 C-1.019 4.483 -3.569 5.792 -8 7 C-8 6.34 -8 5.68 -8 5 C-6.32 3.676 -6.32 3.676 -4.125 2.312 C-3.406 1.855 -2.686 1.397 -1.945 0.926 C-1.303 0.62 -0.661 0.315 0 0 Z " fill="#1B1B1B" transform="translate(590,724)"/>
<path d="M0 0 C0.66 0.33 1.32 0.66 2 1 C1 4 1 4 -1.438 5.75 C-2.706 6.369 -2.706 6.369 -4 7 C-4.66 6.67 -5.32 6.34 -6 6 C-4.02 4.02 -2.04 2.04 0 0 Z " fill="#171717" transform="translate(596,712)"/>
<path d="M0 0 C-0.812 1.938 -0.812 1.938 -2 4 C-2.99 4.33 -3.98 4.66 -5 5 C-5.33 3.68 -5.66 2.36 -6 1 C-3 0 -3 0 0 0 Z " fill="#8D8E89" transform="translate(524,872)"/>
</svg>
